<svg xmlns="http://www.w3.org/2000/svg" version="1.1" viewBox="0 0 64 64" x="0px" y="0px"><title>video-camera</title><path d="M32 5.818c-3.988 0-7.767 0.893-11.15 2.488-8.883 4.188-15.032 13.222-15.032 23.694 0 14.46 11.722 26.182 26.182 26.182s26.182-11.722 26.182-26.182c0-10.472-6.149-19.506-15.032-23.694-3.383-1.595-7.162-2.488-11.15-2.488zM40.14 19.95c3.885 2.65 6.404 7.056 6.405 12.049v0c-0 8.033-6.512 14.545-14.545 14.545v0c-8.033-0-14.545-6.512-14.545-14.545v0c0.006-4.992 2.526-9.395 6.362-12.011l0.050-0.032c2.098 2.051 4.968 3.316 8.134 3.316 3.169 0 6.042-1.267 8.14-3.322zM32 23.273c-4.812 0-8.727 3.915-8.727 8.727s3.915 8.727 8.727 8.727c4.812 0 8.727-3.915 8.727-8.727s-3.915-8.727-8.727-8.727zM35.085 27.824c0.279 0 0.558 0.106 0.772 0.319 2.127 2.127 2.127 5.587 0 7.714-1.029 1.029-2.398 1.595-3.857 1.595s-2.828-0.567-3.857-1.595c-0.426-0.426-0.426-1.117 0-1.543s1.117-0.426 1.543 0c0.617 0.617 1.439 0.957 2.314 0.957s1.697-0.34 2.314-0.957c1.276-1.276 1.276-3.352 0-4.628-0.426-0.426-0.426-1.117 0-1.543 0.213-0.213 0.492-0.319 0.771-0.319z"></path></svg>